<svg viewBox="0 0 100 40.4494" xmlns="http://www.w3.org/2000/svg"><rect fill="#ffb3c7" height="40.4494" rx="11.7384" width="100"/><path d="m80.0772 17.7235a6.194 6.194 0 1 0 0 10.2373v.75h3.5145v-11.7381h-3.5145zm-3.1964 8.1388a3.0243 3.0243 0 1 1 3.1849-3.02 3.1059 3.1059 0 0 1 -3.1849 3.02z"/><path d="m28.2027 11.7416h3.678v16.9694h-3.678z"/><path d="m64.1542 16.6569a4.2694 4.2694 0 0 0 -3.62 1.6383v-1.3219h-3.5v11.7377h3.5421v-6.1686a2.4754 2.4754 0 0 1 2.6383-2.6591c1.5447 0 2.4325.9228 2.4325 2.6348v6.1929h3.5107v-7.4646c-.0001-2.7318-2.1721-4.5895-5.0036-4.5895z"/><path d="m43 17.7235a6.194 6.194 0 1 0 0 10.2373v.75h3.5145v-11.7381h-3.5145zm-3.1965 8.1388a3.0243 3.0243 0 1 1 3.1845-3.02 3.1058 3.1058 0 0 1 -3.1846 3.02z"/><path d="m51.9513 18.5017v-1.5289h-3.5983v11.7383h3.606v-5.48c0-1.8491 2.0042-2.843 3.3949-2.843.014 0 .0276.0014.0417.0015v-3.4161a4.3821 4.3821 0 0 0 -3.4443 1.5282z"/><path d="m87.323 24.5476a2.2059 2.2059 0 1 0 2.206 2.2059 2.2057 2.2057 0 0 0 -2.206-2.2059z"/><path d="m25.6675 11.7384h-3.8117a9.7488 9.7488 0 0 1 -3.9412 7.8678l-1.51 1.131 5.8513 7.9792h4.8106l-5.3837-7.342a13.5049 13.5049 0 0 0 3.9847-9.636z"/><path d="m12.1204 11.7384h3.8185v16.9773h-3.8185z"/></svg>