<svg fill="none" height="38" viewBox="0 0 263 38" width="263" xmlns="http://www.w3.org/2000/svg"><g fill="#fff"><path d="m17.3692 14.1884v.6618c0 2.1079-2.1175 2.1079-2.1175 2.1079h-9.32182c-2.11756 0-2.11756-2.1079-2.11756-2.1079v-9.27158c0-2.10668 2.11756-2.10668 2.11756-2.10668h9.32182c2.1175 0 2.1175 2.10668 2.1175 2.10668v1.19177s0 2.10788 1.8154 2.10788c0 0 1.8154 0 1.8154-2.10788v-.72242s0-.13665-.0299-.33864v-3.60264s0-2.10669-2.1199-2.10669h-16.73264s-2.11756 0-2.11756 2.10669v33.78661s-.00000028 2.1067 2.11756 2.1067h16.73264s2.1199 0 2.1199-2.1067v-21.4352c.0072-.0927.0299-.1676.0299-.2697v-.7225s0-2.1078-1.8154-2.1078c0 0-1.8154 0-1.8154 2.1078v.2103zm0 8.7903v9.2716c0 2.1078-2.1175 2.1078-2.1175 2.1078h-9.32182c-2.11756 0-2.11756-2.1078-2.11756-2.1078v-9.2716c0-2.1079 2.11756-2.1079 2.11756-2.1079h9.32182c2.1175 0 2.1175 2.1079 2.1175 2.1079z"/><path d="m51.23 7.66129c-.9257-.34123-1.8818-.51184-2.8684-.51184-1.7681 0-3.4185.50114-4.9512 1.50343-1.5316 1.00117-2.7884 2.49892-3.7704 4.49342-.982 1.9944-1.473 4.1274-1.473 6.3989 0 2.1386.4752 4.1049 1.4257 5.8988.9516 1.7929 2.2214 3.1674 3.8093 4.1235 1.589.9561 3.3346 1.4336 5.2367 1.4325 2.3446 0 4.2878-.7303 5.8296-2.191 1.5428-1.4617 2.473-3.5513 2.7906-6.2688h-1.0929c-.3795 2.3954-1.196 4.1871-2.4494 5.3752-1.2546 1.1881-2.8065 1.7822-4.6556 1.7822-2.1172 0-3.7614-.7613-4.9326-2.2839-1.3773-1.7962-2.066-4.4056-2.066-7.828 0-4.0699.6014-6.9569 1.8041-8.6608 1.2016-1.70612 2.758-2.55919 4.6691-2.55919 1.767 0 3.2873.76748 4.561 2.30249 1.0282 1.2264 1.8813 3.1324 2.5592 5.7181h1.0389l-.4054-9.18449h-.9696l-1.0677 2.20617c-1.089-.82211-2.0963-1.40433-3.022-1.74669zm8.3584 9.41251h1.2669c.5552 0 .9826.1616 1.2822.4848.2984.3255.4476.8373.4476 1.5356v9.2081c0 .268-.1233.4966-.3699.6858-.2478.1914-.6143.2866-1.0997.2855h-1.4393v1.1622h8.9919v-1.1622h-1.8362c-.598 0-1.0203-.0924-1.2669-.2771-.2467-.1858-.37-.4532-.37-.8024v-3.0997c0-1.1206.3092-2.6161.9274-4.4867.4009-1.2027.9725-2.1493 1.7146-2.8396.5349-.4933 1.0136-.7393 1.4359-.7382.1959 0 .2939.0771.2939.2314 0 .0518-.0766.2112-.2297.4781-.1645.2984-.2467.6171-.2467.9561 0 .5248.1414.9409.424 1.2483.2827.3086.6555.4629 1.1183.4629.473-.0011.866-.1813 1.1791-.5406.3131-.3603.4696-.8643.4696-1.5118 0-.803-.2342-1.4432-.7027-1.9207s-1.0941-.7163-1.8768-.7163c-1.1543 0-2.1222.4933-2.9038 1.4798-.7838.9865-1.4533 2.4416-2.0085 4.365v-5.8448l-5.2012.2636zm28.273 12.2538c-.3604 0-.6543-.17-.8818-.5101-.2263-.3289-.3401-.8418-.3412-1.5389v-7.8855c0-1.0698-.4527-1.9786-1.3582-2.7264-.9043-.7388-2.2163-1.1082-3.9359-1.1082-1.8616 0-3.3661.4218-4.5137 1.2653s-1.7214 1.7737-1.7214 2.7906c0 .5451.1723.9928.517 1.343.3434.3491.7719.5237 1.2855.5237.4831 0 .8733-.1464 1.1706-.4392.2985-.2928.4477-.6701.4477-1.1318 0-.3187-.1481-.6831-.4443-1.093-.2444-.3288-.3666-.5704-.3666-.7247 0-.268.2315-.5405.6943-.8176.6487-.3682 1.4207-.5524 2.316-.5524.9685 0 1.7664.2765 2.3937.8295.6284.5563.9426 1.2247.9426 2.0051v2.1893c-2.9337.3288-5.2835.9882-7.0493 1.9781-1.7647.991-2.647 2.2354-2.647 3.7332 0 .9967.3857 1.8126 1.1571 2.4478.7714.6362 1.8987.9538 3.3819.9527 1.0383 0 1.9285-.1706 2.6707-.5118.7421-.3447 1.602-1.0294 2.5795-2.0542.3603.9539.7798 1.62 1.2585 1.9984.4786.3795 1.0681.5687 1.7686.5676.9167 0 1.7512-.3863 2.5035-1.1588l-.5575-.8666c-.4437.33-.8671.4949-1.2703.4949zm-3.7957-4.4968c0 1.3841-.446 2.5356-1.3379 3.4546-.892.9167-1.946 1.375-3.1623 1.375-.6802 0-1.2315-.2224-1.6538-.6672-.4223-.4471-.6335-1.0654-.6335-1.8548 0-1.1285.4072-2.0007 1.2214-2.6167 1.0924-.8086 2.9477-1.3931 5.5661-1.7534zm6.7266-7.7925c.6272.0102 1.0873.1048 1.3801.2838.2928.1791.5422.4916.7483.9376l5.7063 12.5984h.8109l5.3061-12.2572c.195-.4494.473-.8063.834-1.071.361-.2658.844-.4296 1.451-.4916v-1.0574h-5.993v1.0574c1.483.1858 2.224.6521 2.223 1.3987 0 .1431-.025.2866-.076.4308l-3.4951 8.2554-3.8583-8.5156c-.0901-.2252-.1351-.4504-.1351-.6757 0-.277.1306-.4898.3919-.6385.2624-.1498.866-.2348 1.8109-.2551v-1.0574h-7.105zm30.5907 2.6978c-.516-1.3447-1.283-2.3779-2.301-3.0998-1.018-.7185-2.227-1.0778-3.627-1.0778-1.903 0-3.505.7219-4.807 2.1657-1.301 1.4437-1.951 3.3362-1.951 5.6775 0 2.1781.66 3.9658 1.981 5.3634 1.323 1.3965 2.952 2.0941 4.885 2.093 2.84 0 5.011-1.4595 6.514-4.3785l-1.002-.4325c-1.223 2.2918-2.842 3.4376-4.858 3.4376-1.368 0-2.494-.5073-3.378-1.522-.772-.9054-1.183-2.4545-1.235-4.6471h10.35c-.022-1.4393-.212-2.6324-.571-3.5795zm-8.614-1.8109c.747-.955 1.655-1.4325 2.725-1.4325.956 0 1.787.3953 2.494 1.1859.705.7894 1.057 1.7495 1.057 2.8801 0 .6059-.103 1.0344-.309 1.2856-.206.2522-.495.3783-.865.3783h-6.267c.033-1.9099.421-3.3424 1.165-4.2974zm11.423-.9392h.74c.625 0 1.105.1593 1.439.478.334.3199.5.7878.5 1.4038v9.3263c0 .3086-.13.566-.392.772-.261.2039-.643.3064-1.145.3075h-1.002v1.1622h7.634v-1.1622h-1c-.554 0-.952-.1104-1.194-.3311-.241-.2219-.362-.5946-.362-1.1183v-5.3549c0-1.5012.389-2.7197 1.166-3.6556.777-.9358 1.747-1.4037 2.909-1.4037 1.173 0 2.048.4628 2.625 1.3885.411.6465.616 1.6442.616 2.9934v6.186c0 .4325-.133.7562-.4.9713-.266.2151-.738.3233-1.416.3244h-.723v1.1622h7.617v-1.1622h-1.017c-.554 0-.949-.1104-1.185-.3311-.237-.2219-.355-.5946-.354-1.1183v-7.034c0-1.008-.196-1.9173-.587-2.7282-.391-.8131-.911-1.4071-1.56-1.7821-.648-.3751-1.451-.5626-2.408-.5626-1.113 0-2.109.2613-2.989.7838-.88.5248-1.645 1.3109-2.294 2.3582-.09-1.2128-.231-2.272-.422-3.1774l-4.796.299zm28.111-8.19798h2.331c.402 0 .716.09516.943.28549.226.19032.339.44483.339.76354v18.35875c0 .3694-.105.6414-.316.8159-.21.1746-.589.2619-1.135.2619h-2.162v1.1622h10.553c1.798 0 3.237-.174 4.317-.522 1.44-.473 2.66-1.1825 3.663-2.1284 1.002-.946 1.746-2.0519 2.231-3.3177.637-1.6442.955-3.4951.955-5.5526 0-2.4888-.532-4.6432-1.595-6.4631-1.066-1.8188-2.36-3.12004-3.882-3.90385-1.223-.61602-2.709-.92402-4.458-.92402h-11.784zm10.857 0c2.283 0 3.989.74496 5.12 2.23488 1.324 1.7681 1.987 4.5531 1.987 8.355.001 2.5677-.302 4.5819-.909 6.0425-.443 1.0789-1.09 1.9162-1.943 2.5119-1.306.8942-2.827 1.3413-4.563 1.3413h-1.944c-.616 0-1.052-.0952-1.309-.2855-.257-.1892-.385-.469-.385-.8396v-18.18813c0-.39079.111-.68359.333-.87842.22-.19595.561-.29393 1.023-.29393zm13.504 7.19288v1.076c.954.0203 1.585.1335 1.895.3396.442.2871.662.7089.662 1.2652v6.279c0 2.0676.447 3.5333 1.34 4.3971.883.8728 1.976 1.3091 3.28 1.3091.892 0 1.775-.2562 2.649-.7686.872-.5124 1.739-1.277 2.603-2.294l.318 2.8363 4.848-.1064v-1.0406h-.909c-.554 0-.985-.1464-1.292-.4392-.308-.2928-.461-.7118-.461-1.2568v-11.8603l-5.078.2636v1.076c1.007.0304 1.687.1819 2.042.4544.355.2737.532.6571.532 1.1504v5.4191c0 1.3987-.403 2.5643-1.209 3.4968-.807.9313-1.785 1.397-2.935 1.397-.934 0-1.697-.3193-2.287-.9578-.59-.6363-.885-1.5423-.885-2.718v-9.5815zm19.473 1.0051h.74c.626 0 1.106.1593 1.44.478.334.3199.502.7878.503 1.4038v9.3263c0 .3086-.132.566-.395.772-.263.2039-.645.3064-1.146.3075h-1v1.1622h7.634v-1.1622h-1.002c-.554 0-.951-.1104-1.192-.3311-.241-.2219-.361-.5946-.36-1.1183v-5.3549c0-1.5012.387-2.7197 1.162-3.6556.777-.9358 1.747-1.4037 2.911-1.4037 1.173 0 2.048.4628 2.623 1.3885.413.6465.62 1.6442.62 2.9934v6.186c0 .4325-.134.7562-.402.9713-.267.2151-.739.3233-1.416.3244h-.723v1.1622h7.616v-1.1622h-1.016c-.555 0-.95-.1104-1.186-.3311-.236-.2219-.354-.5946-.354-1.1183v-7.034c0-1.008-.196-1.9173-.586-2.7282-.392-.8131-.913-1.4071-1.561-1.7821-.648-.3751-1.45-.5626-2.408-.5626-1.112 0-2.109.2613-2.99.7838-.88.5248-1.644 1.3109-2.29 2.3582-.094-1.2128-.235-2.272-.424-3.1774l-4.798.299zm19.3 0h.738c.626 0 1.107.1593 1.441.478.334.3199.5.7878.5 1.4038v9.3263c0 .3086-.131.566-.393.772-.262.2039-.643.3064-1.146.3075h-.998v1.1622h7.632v-1.1622h-1.002c-.554 0-.952-.1104-1.194-.3311-.241-.2219-.361-.5946-.361-1.1183v-5.3549c0-1.5012.388-2.7197 1.165-3.6556.777-.9358 1.747-1.4037 2.911-1.4037 1.172 0 2.046.4628 2.623 1.3885.411.6465.617 1.6442.617 2.9934v6.186c0 .4325-.133.7562-.399.9713-.267.2151-.739.3233-1.416.3244h-.721v1.1622h7.614v-1.1622h-1.017c-.554 0-.949-.1104-1.183-.3311-.236-.2219-.355-.5946-.355-1.1183v-7.034c0-1.008-.196-1.9173-.589-2.7282-.39-.8131-.91-1.4071-1.559-1.7821-.649-.3751-1.452-.5626-2.409-.5626-1.112 0-2.108.2613-2.988.7838-.881.5248-1.646 1.3109-2.294 2.3582-.091-1.2128-.231-2.272-.423-3.1774l-4.794.299zm21.815-9.11862c-.35.34911-.526.75566-.527 1.21964 0 .46173.172.86546.517 1.21118.345.3457.754.5181 1.228.5169.474 0 .881-.17 1.22-.5101.339-.33788.508-.73879.508-1.20278 0-.47299-.174-.8846-.524-1.23484-.349-.34911-.755-.52423-1.219-.52536-.453 0-.854.17512-1.203.52536zm-2.816 9.27742h1.189c.65 0 1.14.1464 1.47.4392.33.2939.495.728.495 1.3024v9.0932c0 .4212-.105.7422-.316.9629-.212.2207-.543.3311-.995.3311h-1.529v1.1622h8.234v-1.1622h-1.641c-.36-.0011-.659-.1036-.897-.3075-.164-.1464-.247-.3885-.248-.7263v-12.4346l-5.762.1757zm9.982-9.52067v1.16389h1.299c.555 0 1.024.16442 1.405.49326.277.2365.417.61151.418 1.12502v17.5733c0 .4111-.116.7298-.348.9561-.232.2253-.585.3379-1.058.3379h-1.451v1.1622h8.2v-1.1622h-1.531c-.369-.0011-.682-.1036-.939-.3075-.177-.1542-.265-.3755-.265-.6638v-20.94169zm9.95 0v1.16389h1.299c.555 0 1.023.16442 1.405.49326.277.2365.416.61151.417 1.12502v17.5733c0 .4111-.116.7298-.348.9561-.232.2253-.584.3379-1.057.3379h-1.45v1.1622h8.197v-1.1622h-1.529c-.369-.0011-.683-.1036-.941-.3075-.176-.1542-.263-.3755-.263-.6638v-20.94169z"/></g></svg>